<?xml version="1.0" standalone="no"?>
<!DOCTYPE svg PUBLIC "-//W3C//DTD SVG 20010904//EN"
 "http://www.w3.org/TR/2001/REC-SVG-20010904/DTD/svg10.dtd">
<svg version="1.0" xmlns="http://www.w3.org/2000/svg"
 width="718.000000pt" height="574.000000pt" viewBox="0 0 718.000000 574.000000"
 preserveAspectRatio="xMidYMid meet">

<g transform="translate(0.000000,574.000000) scale(0.100000,-0.100000)"
fill="#000000" stroke="none">
<path d="M1060 3145 l0 -2155 193 0 192 0 213 211 212 211 0 1608 0 1608 -282
238 c-466 396 -512 434 -520 434 -5 0 -8 -970 -8 -2155z"/>
<path d="M754 706 c-127 -56 -137 -327 -14 -388 23 -12 58 -18 105 -18 119 0
115 -4 115 111 l0 99 -75 0 -75 0 0 -30 c0 -28 2 -30 40 -30 l40 0 0 -46 0
-47 -50 5 c-65 6 -95 34 -109 99 -19 86 8 161 66 186 40 16 78 11 106 -15 17
-15 20 -15 38 8 24 32 21 41 -22 62 -41 21 -121 23 -165 4z"/>
<path d="M6370 709 c-39 -15 -60 -49 -60 -97 0 -60 28 -95 106 -133 81 -38
101 -71 64 -101 -25 -20 -69 -21 -152 -2 -26 6 -28 4 -28 -29 0 -42 12 -47
118 -47 108 0 151 30 152 106 0 53 -26 87 -93 120 -95 48 -120 87 -75 118 29
21 46 20 89 -3 l37 -20 23 25 c20 21 21 27 9 35 -54 37 -136 49 -190 28z"/>
<path d="M1056 512 c-31 -108 -56 -201 -56 -205 0 -4 16 -7 35 -7 33 0 35 2
46 45 l11 45 68 0 67 0 13 -45 c12 -42 15 -45 46 -45 19 0 34 4 34 10 0 8 -63
235 -106 383 -4 13 -16 17 -53 17 l-48 0 -57 -198z m154 -54 c0 -5 -23 -8 -51
-8 -43 0 -50 2 -45 18 3 9 12 46 21 82 9 36 19 69 23 74 4 8 51 -142 52 -166z"/>
<path d="M1380 505 l0 -205 140 0 140 0 0 30 0 29 -102 3 -103 3 -3 173 -2
172 -35 0 -35 0 0 -205z"/>
<path d="M1761 517 c-30 -105 -56 -198 -59 -205 -3 -10 5 -13 33 -10 35 3 39
6 49 43 l12 40 67 3 67 3 12 -46 c12 -43 14 -45 50 -45 25 0 36 4 33 13 -2 6
-25 84 -50 172 -72 251 -59 225 -113 225 l-47 0 -54 -193z m145 -34 l6 -33
-50 0 -50 0 9 38 c6 20 17 62 26 92 l16 55 18 -60 c10 -33 22 -75 25 -92z"/>
<path d="M2069 692 c6 -10 33 -55 60 -100 28 -45 51 -84 51 -86 0 -3 -27 -48
-60 -100 -33 -53 -60 -98 -60 -101 0 -3 18 -5 40 -5 39 0 40 1 75 70 19 39 37
70 39 70 3 0 22 -32 42 -70 37 -68 39 -70 76 -70 21 0 38 3 38 6 0 4 -24 46
-54 93 -29 47 -56 91 -60 98 -3 6 21 55 54 108 33 53 60 98 60 101 0 2 -18 4
-40 4 -39 0 -40 -1 -76 -72 l-36 -71 -40 71 c-39 70 -40 72 -79 72 -35 0 -39
-2 -30 -18z"/>
<path d="M2440 680 c0 -29 2 -30 45 -30 l45 0 0 -145 0 -145 -45 0 c-43 0 -45
-1 -45 -30 l0 -30 130 0 130 0 0 29 c0 28 -2 30 -47 33 l-48 3 -3 143 -3 142
51 0 c49 0 50 1 50 30 l0 30 -130 0 -130 0 0 -30z"/>
<path d="M2870 707 c0 -2 -27 -94 -59 -205 l-59 -202 38 0 c36 0 38 2 49 45
l11 45 68 0 68 0 12 -45 c11 -43 14 -45 48 -45 30 0 35 3 32 18 -3 9 -29 101
-58 205 l-54 187 -48 0 c-26 0 -48 -1 -48 -3z m75 -162 c10 -38 20 -76 23 -82
3 -9 -10 -13 -47 -13 -28 0 -51 2 -51 5 0 25 44 174 50 168 4 -4 15 -39 25
-78z"/>
<path d="M3490 504 l0 -206 88 4 c64 3 98 9 123 24 107 61 107 290 0 361 -29
20 -47 23 -122 23 l-89 0 0 -206z m166 127 c40 -24 58 -75 52 -149 -4 -47 -10
-60 -37 -84 -24 -22 -41 -28 -76 -28 l-45 0 0 140 0 140 38 0 c20 0 51 -9 68
-19z"/>
<path d="M3840 505 l0 -205 140 0 140 0 0 30 0 29 -102 3 -103 3 0 55 0 55 78
3 77 3 0 29 0 30 -80 0 -80 0 0 55 0 55 105 0 105 0 0 30 0 30 -140 0 -140 0
0 -205z"/>
<path d="M4550 505 l0 -205 135 0 135 0 0 30 0 29 -102 3 -103 3 -3 173 -2
172 -30 0 -30 0 0 -205z"/>
<path d="M4900 505 l0 -205 140 0 140 0 0 30 0 30 -105 0 -105 0 0 60 0 60 75
0 75 0 0 30 0 30 -75 0 -75 0 0 55 0 55 105 0 105 0 0 30 0 30 -140 0 -140 0
0 -205z"/>
<path d="M5230 680 l0 -30 60 0 60 0 0 -175 0 -175 30 0 30 0 0 175 0 175 60
0 60 0 0 30 0 30 -150 0 -150 0 0 -30z"/>
<path d="M5590 505 l0 -205 35 0 34 0 3 78 3 77 39 0 39 0 32 -75 c32 -75 32
-75 73 -78 41 -3 42 -3 33 22 -6 13 -24 52 -40 85 -30 57 -30 61 -12 70 10 6
26 29 35 52 23 57 13 114 -26 151 -29 27 -34 28 -139 28 l-109 0 0 -205z m192
128 c22 -20 23 -70 1 -95 -12 -13 -30 -18 -70 -18 l-53 0 0 65 0 65 52 0 c34
0 58 -6 70 -17z"/>
<path d="M6036 702 c-2 -4 -27 -88 -56 -187 -28 -99 -53 -188 -56 -198 -5 -16
-1 -18 32 -15 34 3 38 6 48 43 l12 40 67 3 67 3 12 -46 c12 -43 14 -45 50 -45
25 0 36 4 33 13 -2 6 -18 62 -35 122 -17 61 -43 147 -56 193 l-25 82 -44 0
c-24 0 -46 -3 -49 -8z m90 -219 l6 -33 -50 0 -50 0 9 38 c6 20 17 62 26 92
l16 55 18 -60 c10 -33 22 -75 25 -92z"/>
</g>
</svg>
